<?xml version="1.0" standalone="no"?>
<!DOCTYPE svg PUBLIC "-//W3C//DTD SVG 20010904//EN"
 "http://www.w3.org/TR/2001/REC-SVG-20010904/DTD/svg10.dtd">
<svg version="1.0" xmlns="http://www.w3.org/2000/svg"
 width="225.000000pt" height="225.000000pt" viewBox="0 0 225.000000 225.000000"
 preserveAspectRatio="xMidYMid meet">

<g transform="translate(0.000000,225.000000) scale(0.100000,-0.100000)"
fill="#000000" stroke="none">
<path d="M1408 1563 c-64 -65 -122 -131 -127 -146 -6 -16 -11 -57 -11 -93 0
-80 -21 -125 -85 -178 l-47 -39 26 -26 27 -26 46 48 c70 73 85 80 172 82 47 2
88 8 106 18 17 9 82 68 145 131 98 99 113 119 104 134 -23 36 -45 25 -149 -77
-73 -72 -107 -100 -119 -95 -36 14 -16 49 79 144 94 93 106 115 83 138 -23 23
-42 11 -138 -89 -68 -71 -103 -100 -116 -97 -43 8 -26 40 76 144 72 73 101
108 96 120 -3 8 -6 18 -6 20 0 2 -10 4 -23 4 -15 0 -59 -36 -139 -117z"/>
<path d="M902 1646 c-7 -16 -20 -26 -33 -26 -21 0 -21 -1 -5 -19 12 -13 15
-27 11 -41 -6 -20 -5 -21 15 -10 17 9 29 9 47 1 22 -10 24 -9 18 10 -4 13 -1
27 11 40 16 18 16 19 -4 19 -13 0 -27 10 -35 26 l-13 25 -12 -25z"/>
<path d="M1072 1646 c-7 -16 -20 -26 -33 -26 -21 0 -21 -1 -5 -19 12 -13 15
-27 11 -41 -6 -20 -5 -21 15 -10 17 9 29 9 47 1 22 -10 24 -9 18 10 -4 13 -1
27 11 40 16 18 16 19 -4 19 -13 0 -27 10 -35 26 l-13 25 -12 -25z"/>
<path d="M1242 1646 c-7 -16 -20 -26 -33 -26 -21 0 -21 -1 -4 -20 10 -11 15
-28 12 -39 -4 -18 -2 -19 15 -10 15 8 27 8 45 0 22 -10 24 -9 18 10 -4 13 -1
27 11 40 16 18 16 19 -4 19 -13 0 -27 10 -35 26 l-13 25 -12 -25z"/>
<path d="M506 1579 c-26 -21 -28 -26 -24 -83 3 -44 14 -83 39 -136 66 -138
107 -170 229 -174 56 -2 87 -8 108 -22 17 -11 133 -138 257 -284 263 -308 275
-320 316 -320 65 0 104 89 62 138 -10 11 -139 124 -288 252 -148 128 -280 249
-292 269 -18 28 -23 51 -23 104 0 83 -15 122 -65 166 -54 47 -172 101 -236
108 -46 4 -58 2 -83 -18z"/>
<path d="M460 1078 c0 -12 8 -30 17 -40 12 -13 13 -22 6 -29 -18 -18 -37 0
-21 19 11 13 11 14 -2 10 -8 -2 -15 -13 -15 -24 0 -24 37 -31 55 -10 10 13 9
20 -4 41 -9 13 -16 31 -16 40 0 8 -4 15 -10 15 -5 0 -10 -10 -10 -22z"/>
<path d="M496 1085 c4 -8 8 -15 10 -15 2 0 4 7 4 15 0 8 -4 15 -10 15 -5 0 -7
-7 -4 -15z"/>
<path d="M530 1085 c-7 -8 -10 -20 -7 -27 4 -8 6 -7 6 4 1 9 6 20 12 24 9 5
10 -1 5 -20 -3 -14 -9 -37 -12 -51 -4 -14 -2 -25 4 -25 6 0 13 15 17 33 4 17
9 39 11 48 6 22 -21 32 -36 14z"/>
<path d="M584 1093 c4 -7 2 -22 -4 -33 -14 -26 -2 -26 26 1 l22 21 -5 -40 c-3
-23 -1 -42 6 -46 17 -11 50 12 57 39 3 14 10 23 14 20 4 -3 10 4 13 15 3 11
10 20 17 20 7 0 6 -8 -4 -22 -20 -28 -20 -52 -2 -67 20 -17 54 2 62 34 3 14
10 22 15 19 5 -3 9 4 9 15 0 12 4 21 9 21 5 0 5 -16 0 -37 -13 -56 -9 -74 6
-28 l12 40 7 -32 c11 -47 23 -49 35 -6 15 53 12 87 -3 38 l-12 -40 -8 38 c-7
38 -30 49 -53 26 -8 -8 -13 -8 -17 0 -12 18 -24 12 -19 -9 8 -29 -5 -70 -22
-70 -18 0 -19 9 -5 46 14 36 -3 56 -27 32 -15 -15 -18 -16 -28 -2 -9 13 -11 9
-12 -21 -1 -21 -8 -45 -17 -53 -15 -15 -16 -13 -16 20 0 20 5 40 11 44 18 11
-12 24 -31 14 -11 -6 -22 -5 -30 3 -10 9 -11 9 -6 0z"/>
<path d="M1304 1083 c-3 -10 -11 -28 -16 -40 -22 -44 22 -74 53 -36 13 15 12
15 -8 5 -27 -15 -38 -1 -23 27 6 11 9 25 8 32 -2 6 3 14 11 17 8 3 11 0 7 -7
-4 -6 -2 -11 3 -11 6 0 11 7 11 15 0 21 -39 19 -46 -2z"/>
<path d="M1420 1081 c-7 -13 -7 -22 0 -26 5 -3 10 3 10 14 0 12 4 21 9 21 6 0
6 -12 0 -32 -12 -43 -12 -71 1 -63 6 3 10 14 10 24 0 10 11 26 25 35 37 24 32
46 -10 46 -24 0 -37 -6 -45 -19z m70 0 c0 -12 -20 -25 -27 -18 -7 7 6 27 18
27 5 0 9 -4 9 -9z"/>
<path d="M1512 1087 c-1 -7 -5 -28 -8 -48 -3 -22 -2 -39 5 -43 17 -11 50 12
57 39 3 14 10 22 15 19 5 -3 9 2 9 10 0 8 5 18 11 22 9 5 10 -1 5 -20 -3 -14
-9 -37 -12 -51 -4 -14 -2 -25 4 -25 6 0 13 14 17 30 8 36 24 32 17 -5 -2 -14
0 -25 6 -25 12 0 22 91 11 104 -4 4 -6 0 -6 -9 1 -10 -4 -20 -11 -22 -7 -3
-10 1 -6 10 7 20 -22 29 -37 11 -10 -12 -13 -12 -23 2 -10 13 -12 9 -13 -21
-1 -21 -8 -45 -17 -53 -15 -15 -16 -13 -16 19 0 19 5 40 11 46 7 7 6 12 -4 16
-7 3 -14 0 -15 -6z"/>
<path d="M1683 1093 c-7 -2 -13 -14 -12 -26 0 -22 0 -22 9 1 15 35 19 26 9
-19 -13 -56 -5 -72 14 -29 l15 35 1 -32 c1 -18 6 -33 12 -33 8 0 10 13 6 38
-2 21 0 47 6 58 10 18 10 18 -12 0 -18 -17 -21 -17 -15 -3 6 17 -7 21 -33 10z"/>
<path d="M1335 1040 c-3 -5 1 -10 9 -10 8 0 18 5 21 10 3 6 -1 10 -9 10 -8 0
-18 -4 -21 -10z"/>
<path d="M810 823 c-80 -68 -148 -130 -152 -136 -4 -7 -8 -27 -8 -45 0 -58 59
-97 115 -76 9 4 73 72 141 151 l124 144 -19 27 c-50 71 -41 73 -201 -65z"/>
<path d="M1033 653 c-18 -7 -16 -38 2 -53 20 -16 19 -40 -1 -40 -11 0 -15 6
-11 20 6 22 -8 28 -16 7 -8 -22 8 -39 34 -35 22 3 24 8 24 52 0 48 -7 59 -32
49z m27 -18 c0 -8 -4 -15 -10 -15 -5 0 -10 7 -10 15 0 8 5 15 10 15 6 0 10 -7
10 -15z"/>
<path d="M1096 644 c-20 -19 -20 -28 -2 -44 13 -10 15 -7 13 14 -1 14 3 25 8
26 15 0 14 -48 -1 -68 -12 -15 -15 -15 -24 -2 -8 13 -10 13 -10 -2 0 -26 36
-23 54 4 19 27 21 59 4 76 -16 16 -23 15 -42 -4z"/>
<path d="M974 625 c-1 -14 -5 -36 -8 -50 -7 -28 10 -35 18 -7 16 56 17 82 4
82 -7 0 -14 -11 -14 -25z"/>
<path d="M1170 641 c0 -5 -3 -17 -6 -26 -5 -12 -2 -16 12 -13 23 4 27 -33 5
-40 -10 -3 -12 0 -8 12 5 12 3 16 -5 14 -7 -3 -13 -11 -13 -19 0 -20 46 -17
59 4 9 15 7 22 -11 37 -26 21 -30 35 -8 27 8 -4 17 -2 20 3 4 6 -5 10 -19 10
-14 0 -26 -4 -26 -9z"/>
</g>
</svg>
